<?xml version="1.0" encoding="UTF-8"?>
<svg width="24px" height="24px" viewBox="0 0 24 24" version="1.1" xmlns="http://www.w3.org/2000/svg" xmlns:xlink="http://www.w3.org/1999/xlink">
    <title>ic_联合行动-深色</title>
    <defs>
        <rect id="path-1" x="1.0658141e-14" y="0.0351048269" width="23.9765854" height="23.9648952" rx="5.15121951"></rect>
    </defs>
    <g id="首页pc3.25" stroke="none" stroke-width="1" fill="none" fill-rule="evenodd">
        <g id="产品-详情-移动检务" transform="translate(-360.000000, -684.000000)">
            <g id="ic_联合行动-深色" transform="translate(360.000000, 684.000000)">
                <mask id="mask-2" fill="white">
                    <use xlink:href="#path-1"></use>
                </mask>
                <use id="圆角220" fill="#1F3F74" xlink:href="#path-1"></use>
                <g id="编组-67" mask="url(#mask-2)" fill="#FFFFFF">
                    <g transform="translate(6.600000, 4.800499)">
                        <path d="M0.800515228,0.000454662638 L6.85203745,0.205951322 C7.26916953,0.220116229 7.6,0.562371678 7.6,0.979744195 L7.6,0.979744195 L7.6,1.657 L4.3445202,1.76798068 C3.93664774,1.78181788 3.60612286,2.08973715 3.55386783,2.48388427 L3.54666667,2.59336065 L3.54713199,10.8813944 C3.3954324,10.9705731 3.29333333,11.1375272 3.29333333,11.3287746 C3.29333333,11.520022 3.3954324,11.6869761 3.54713199,11.7761548 L3.547,12.481 L0.747962549,12.3864923 C0.365591474,12.3735078 0.055737728,12.0848361 0.00675079165,11.7153312 L1.77635684e-15,11.6126994 L0.000446015398,0.747971196 C0.0149580368,0.320617193 0.373161224,-0.0140573588 0.800515228,0.000454662638 L0.800515228,0.000454662638 Z M2.92065994,0.45806895 C2.8637576,0.456044648 2.81416155,0.491229739 2.79530367,0.541802244 L2.79530367,0.541802244 L2.78727834,0.582606592 L2.79244579,0.623560305 C2.80772265,0.67535516 2.85472955,0.713960415 2.91165472,0.715985529 L2.91165472,0.715985529 L4.67934006,0.778870977 L4.72028076,0.773753411 C4.75911929,0.76234102 4.79055292,0.733067062 4.80469633,0.695137683 L4.80469633,0.695137683 L4.81272166,0.654333335 L4.80755421,0.613379622 C4.79227735,0.561584767 4.74527045,0.522979512 4.68834528,0.520954397 L4.68834528,0.520954397 Z" id="形状结合" fill-opacity="0.8"></path>
                        <path d="M10.5994848,1.80701207 C11.0268388,1.79250005 11.385042,2.1271746 11.399554,2.5545286 C11.3998513,2.56328423 11.4,2.57204427 11.4,2.58080494 L11.4,13.4192568 C11.4,13.8366294 11.0691695,14.1788848 10.6520375,14.1930497 L4.60051523,14.3985464 C4.17316122,14.4130584 3.81495804,14.0783838 3.80044602,13.6510298 L3.8,2.7863016 C3.8,2.36892908 4.13083047,2.02667364 4.54796255,2.01250873 L10.5994848,1.80701207 Z M7.6,12.6191727 C7.32017573,12.6191727 7.09333333,12.8502651 7.09333333,13.135332 C7.09333333,13.4203989 7.32017573,13.6514913 7.6,13.6514913 C7.87982427,13.6514913 8.10666667,13.4203989 8.10666667,13.135332 C8.10666667,12.8502651 7.87982427,12.6191727 7.6,12.6191727 Z M8.47934006,2.26462636 L6.71165472,2.3275118 C6.65472955,2.32953692 6.60772265,2.36814217 6.59244579,2.41993703 L6.58727834,2.46089074 L6.59530367,2.50169509 C6.60944708,2.53962447 6.64088071,2.56889843 6.67971924,2.58031082 L6.72065994,2.58542838 L8.48834528,2.52254294 C8.54527045,2.52051782 8.59227735,2.48191257 8.60755421,2.43011771 L8.61272166,2.389164 L8.60469633,2.34835965 C8.58583845,2.29778715 8.5362424,2.26260205 8.47934006,2.26462636 Z" id="形状结合备份"></path>
                    </g>
                </g>
            </g>
        </g>
    </g>
</svg>